<svg width="24" height="25" viewBox="0 0 24 25" fill="none" xmlns="http://www.w3.org/2000/svg">
<path fill-rule="evenodd" clip-rule="evenodd" d="M2 12.5C2 6.97715 6.47715 2.5 12 2.5C17.5228 2.5 22 6.97715 22 12.5C22 18.0228 17.5228 22.5 12 22.5C6.47715 22.5 2 18.0228 2 12.5ZM4 12.5C4 16.9183 7.58172 20.5 12 20.5C16.4183 20.5 20 16.9183 20 12.5C20 8.08172 16.4183 4.5 12 4.5C7.58172 4.5 4 8.08172 4 12.5ZM7 11.5C6.44772 11.5 6 11.9477 6 12.5C6 13.0523 6.44772 13.5 7 13.5H14.584L13.2929 14.7929L13.2097 14.8871C12.9047 15.2794 12.9324 15.8466 13.2929 16.2071C13.6834 16.5976 14.3166 16.5976 14.7071 16.2071L17.7071 13.2071L17.7803 13.1254L17.854 13.0207L17.9063 12.9232L17.9503 12.8121L17.9798 12.7007L17.9972 12.5752L18 12.5L17.9931 12.3819L17.9642 12.234L17.9288 12.1287L17.8753 12.0159L17.8037 11.9047L17.7485 11.8369L17.7071 11.7929L14.7071 8.79289L14.6129 8.7097C14.2206 8.40468 13.6534 8.43241 13.2929 8.79289L13.2097 8.8871L13.1404 8.9886C12.9116 9.37249 12.9625 9.87666 13.2929 10.2071L14.586 11.5H7Z" fill="white"/>
</svg>
