<svg width="21" height="21" viewBox="0 0 21 21" fill="none" xmlns="http://www.w3.org/2000/svg">
<path fill-rule="evenodd" clip-rule="evenodd" d="M4.375 19.25C2.92525 19.25 1.75 18.0747 1.75 16.625V6.125C1.75 4.67525 2.92525 3.5 4.375 3.5H5.25V2.625C5.25 2.14175 5.64175 1.75 6.125 1.75C6.60825 1.75 7 2.14175 7 2.625V3.5H14V2.625C14 2.14175 14.3918 1.75 14.875 1.75C15.3583 1.75 15.75 2.14175 15.75 2.625V3.5H16.625C18.0747 3.5 19.25 4.67525 19.25 6.125V16.625C19.25 18.0747 18.0747 19.25 16.625 19.25H4.375ZM7 14.875H3.5V16.625C3.5 17.1082 3.89175 17.5 4.375 17.5H7V14.875ZM12.25 14.875H8.75V17.5H12.25V14.875ZM17.5 14.875H14V17.5H16.625C17.1082 17.5 17.5 17.1082 17.5 16.625V14.875ZM7 10.5H3.5V13.125H7V10.5ZM12.25 10.5H8.75V13.125H12.25V10.5ZM17.5 10.5H14V13.125H17.5V10.5ZM5.25 5.25H4.375C3.89175 5.25 3.5 5.64175 3.5 6.125V8.75H17.5V6.125C17.5 5.64175 17.1082 5.25 16.625 5.25H15.75V6.125C15.75 6.60825 15.3582 7 14.875 7C14.3918 7 14 6.60825 14 6.125V5.25H7V6.125C7 6.60825 6.60825 7 6.125 7C5.64175 7 5.25 6.60825 5.25 6.125V5.25Z" fill="#475569"/>
</svg>
