<svg width="21" height="21" viewBox="0 0 21 21" fill="none" xmlns="http://www.w3.org/2000/svg">
<path fill-rule="evenodd" clip-rule="evenodd" d="M18.375 17.5C18.8583 17.5 19.25 17.8917 19.25 18.375C19.25 18.8582 18.8583 19.25 18.375 19.25H2.625C2.14175 19.25 1.75 18.8582 1.75 18.375C1.75 17.8917 2.14175 17.5 2.625 17.5H18.375ZM5.50628 11.6313L15.1313 2.00628C15.4467 1.69086 15.943 1.66659 16.2863 1.93349L16.3687 2.00628L18.9937 4.63128C19.3091 4.94671 19.3334 5.44303 19.0665 5.78629L18.9937 5.86872L9.36872 15.4937C9.23197 15.6305 9.05463 15.7173 8.86501 15.7424L8.75 15.75H6.125C5.67627 15.75 5.30643 15.4122 5.25589 14.977L5.25 14.875V12.25C5.25 12.0566 5.31402 11.8698 5.43032 11.718L5.50628 11.6313L15.1313 2.00628L5.50628 11.6313ZM15.75 3.86244L7 12.6124V14H8.38756L17.1376 5.25L15.75 3.86244Z" fill="#1E293B"/>
</svg>
