<svg width="19" height="20" viewBox="0 0 19 20" fill="none" xmlns="http://www.w3.org/2000/svg">
<path fill-rule="evenodd" clip-rule="evenodd" d="M8.56984 1.66666H10.4293C11.7556 1.66982 12.0601 1.68211 12.7638 1.71591C13.6065 1.75637 14.182 1.89726 14.6856 2.10329C15.2062 2.31623 15.6477 2.60119 16.0879 3.06449C16.528 3.52783 16.7987 3.99258 17.0011 4.5406C17.1968 5.07069 17.3306 5.67651 17.369 6.56354C17.4063 7.4228 17.416 7.71664 17.4166 9.77974V10.2194C17.416 12.2825 17.4063 12.5763 17.369 13.4356C17.3306 14.3226 17.1968 14.9284 17.0011 15.4585C16.7987 16.0065 16.528 16.4713 16.0879 16.9346C15.6477 17.3979 15.2062 17.6829 14.6856 17.8959C14.182 18.1019 13.6065 18.2427 12.7638 18.2832C11.9475 18.3224 11.6683 18.3327 9.70842 18.3333H9.29074C7.3308 18.3327 7.05165 18.3224 6.23535 18.2832C5.39267 18.2427 4.81715 18.1019 4.31356 17.8959C3.79294 17.6829 3.35142 17.3979 2.91126 16.9346C2.47112 16.4713 2.20041 16.0065 1.99811 15.4585C1.80239 14.9284 1.66854 14.3226 1.6301 13.4356C1.59799 12.6948 1.58631 12.3743 1.58331 10.9782V9.0209C1.58631 7.62482 1.59799 7.30428 1.6301 6.56354C1.66854 5.67651 1.80239 5.07069 1.99811 4.5406C2.20041 3.99258 2.47112 3.52783 2.91126 3.06449C3.35142 2.60119 3.79294 2.31623 4.31356 2.10329C4.81715 1.89726 5.39267 1.75637 6.23535 1.71591C6.93906 1.68211 7.24357 1.66982 8.56984 1.66666H10.4293H8.56984ZM10.0803 3.16762H8.91885C7.32969 3.16936 7.05172 3.17985 6.30038 3.21594C5.52847 3.25299 5.10926 3.38875 4.83028 3.50288C4.46073 3.65406 4.197 3.83465 3.91997 4.12629C3.64291 4.4179 3.47135 4.69552 3.32773 5.08452C3.2193 5.37818 3.09033 5.81945 3.05513 6.63199C3.02085 7.42288 3.01088 7.71547 3.00923 9.38828V10.6109C3.01088 12.2836 3.02085 12.5762 3.05513 13.3671C3.09033 14.1797 3.2193 14.6209 3.32773 14.9146C3.47135 15.3036 3.64294 15.5812 3.91997 15.8728C4.197 16.1645 4.46073 16.345 4.83028 16.4962C5.10926 16.6104 5.52847 16.7461 6.30038 16.7832C7.13511 16.8233 7.38546 16.8318 9.49958 16.8318C11.6137 16.8318 11.8641 16.8233 12.6988 16.7832C13.4707 16.7461 13.8899 16.6104 14.1689 16.4962C14.5384 16.345 14.8021 16.1645 15.0792 15.8728C15.3562 15.5812 15.5278 15.3036 15.6714 14.9146C15.7798 14.6209 15.9088 14.1797 15.944 13.3671C15.9821 12.4884 15.9902 12.2248 15.9902 9.99957C15.9902 7.77434 15.9821 7.51075 15.944 6.63199C15.9088 5.81945 15.7798 5.37818 15.6714 5.08452C15.5278 4.69552 15.3562 4.4179 15.0792 4.12629C14.8021 3.83465 14.5384 3.65406 14.1689 3.50288C13.8899 3.38875 13.4707 3.25299 12.6988 3.21594C11.9474 3.17985 11.6694 3.16936 10.0803 3.16762ZM9.49958 5.83266C11.6858 5.83266 13.4581 7.69823 13.4581 9.99957C13.4581 12.3009 11.6858 14.1665 9.49958 14.1665C7.3133 14.1665 5.54101 12.3009 5.54101 9.99957C5.54101 7.69823 7.3133 5.83266 9.49958 5.83266ZM9.49958 7.29473C8.08042 7.29473 6.92998 8.50571 6.92998 9.99957C6.92998 11.4934 8.08042 12.7044 9.49958 12.7044C10.9187 12.7044 12.0692 11.4934 12.0692 9.99957C12.0692 8.50571 10.9187 7.29473 9.49958 7.29473ZM13.788 4.44369C14.3346 4.44369 14.7776 4.9101 14.7776 5.48543C14.7776 6.06077 14.3346 6.52714 13.788 6.52714C13.2415 6.52714 12.7984 6.06077 12.7984 5.48543C12.7984 4.9101 13.2415 4.44369 13.788 4.44369Z" fill="white"/>
</svg>
