<svg width="21" height="20" viewBox="0 0 21 20" fill="none" xmlns="http://www.w3.org/2000/svg">
<path fill-rule="evenodd" clip-rule="evenodd" d="M17.7881 1.66666C18.5955 1.66666 19.25 2.28959 19.25 3.05898V16.941C19.25 17.71 18.5959 18.3333 17.7881 18.3333H3.21194C2.40453 18.3333 1.75 17.7104 1.75 16.941V3.05898C1.75 2.29002 2.40408 1.66666 3.21194 1.66666H17.7881ZM13.5789 7.91666C12.3369 7.91666 11.4871 8.43945 11.1087 9.04687L11.0469 9.15485V8.02082H8.67708V16.0069H11.2292V12.1385C11.2292 10.842 11.7305 10.0174 12.9354 10.0174C13.7664 10.0174 14.1151 10.7172 14.1439 11.965L14.1458 12.1385V16.0069H16.6979V11.5962C16.6979 9.21457 16.0996 7.91666 13.5789 7.91666ZM6.85417 7.91666H4.30208V15.9028H6.85417V7.91666ZM5.57812 3.74999C4.67214 3.74999 3.9375 4.44964 3.9375 5.31249C3.9375 6.17534 4.67214 6.87499 5.57812 6.87499C6.48411 6.87499 7.21875 6.17534 7.21875 5.31249C7.21875 4.44964 6.48411 3.74999 5.57812 3.74999Z" fill="white"/>
</svg>
