<svg width="21" height="21" viewBox="0 0 21 21" fill="none" xmlns="http://www.w3.org/2000/svg">
<path fill-rule="evenodd" clip-rule="evenodd" d="M16.625 3.5C18.0747 3.5 19.25 4.67525 19.25 6.125V14.875C19.25 16.3247 18.0747 17.5 16.625 17.5H4.375C2.92525 17.5 1.75 16.3247 1.75 14.875V6.125C1.75 4.67525 2.92525 3.5 4.375 3.5H16.625ZM17.5 6.412L11.0762 12.0335C10.7738 12.2981 10.3347 12.3202 10.0095 12.0997L9.92381 12.0335L3.5 6.41287V14.875C3.5 15.3582 3.89175 15.75 4.375 15.75H16.625C17.1082 15.75 17.5 15.3582 17.5 14.875V6.412ZM16.17 5.25H4.82825L10.5 10.2123L16.17 5.25Z" fill="#475569"/>
</svg>
