<svg width="21" height="21" viewBox="0 0 21 21" fill="none" xmlns="http://www.w3.org/2000/svg">
<path fill-rule="evenodd" clip-rule="evenodd" d="M10.5 1.75C14.8492 1.75 18.375 5.23751 18.375 9.53957C18.375 12.3864 15.993 15.3963 11.3297 18.6753L10.5 19.25L9.99932 18.9045C5.11912 15.5364 2.625 12.4526 2.625 9.53957C2.625 5.23751 6.15076 1.75 10.5 1.75ZM10.5 3.48102C7.11726 3.48102 4.375 6.19352 4.375 9.53957C4.375 11.6417 6.38463 14.2069 10.5 17.1341C14.6154 14.2069 16.625 11.6417 16.625 9.53957C16.625 6.19352 13.8827 3.48102 10.5 3.48102ZM10.5 5.25C12.433 5.25 14 6.817 14 8.75C14 10.683 12.433 12.25 10.5 12.25C8.567 12.25 7 10.683 7 8.75C7 6.817 8.567 5.25 10.5 5.25ZM10.5 7C9.5335 7 8.75 7.7835 8.75 8.75C8.75 9.7165 9.5335 10.5 10.5 10.5C11.4665 10.5 12.25 9.7165 12.25 8.75C12.25 7.7835 11.4665 7 10.5 7Z" fill="#475569"/>
</svg>
