<svg width="21" height="21" viewBox="0 0 21 21" fill="none" xmlns="http://www.w3.org/2000/svg">
<path fill-rule="evenodd" clip-rule="evenodd" d="M8.36036 8.60304C8.60379 8.44076 8.75 8.16756 8.75 7.875V4.375C8.75 2.92525 7.57475 1.75 6.125 1.75H2.625C2.14175 1.75 1.75 2.14175 1.75 2.625C1.75 11.3235 9.67652 19.25 18.375 19.25C18.8583 19.25 19.25 18.8583 19.25 18.375V14.875C19.25 13.4253 18.0747 12.25 16.625 12.25H13.125C12.8324 12.25 12.5592 12.3962 12.397 12.6396L10.7298 15.1404C8.91397 13.9663 7.32309 12.4155 6.0994 10.6303L5.8596 10.2702L8.36036 8.60304ZM13.5933 14H16.625C17.1083 14 17.5 14.3917 17.5 14.875V17.4697C15.8049 17.3524 14.1506 16.899 12.6077 16.1801L12.2536 16.0095L13.5933 14ZM3.53034 3.5H6.125C6.60825 3.5 7 3.89175 7 4.375V7.40671L4.99046 8.74641C4.17272 7.10364 3.65665 5.32548 3.53034 3.5Z" fill="#475569"/>
</svg>
