<svg width="19" height="20" viewBox="0 0 19 20" fill="none" xmlns="http://www.w3.org/2000/svg">
<path fill-rule="evenodd" clip-rule="evenodd" d="M15.4582 6.99061C15.4677 7.12186 15.4677 7.25313 15.4677 7.38437C15.4677 11.3875 12.3744 16 6.72083 16C4.97906 16 3.36105 15.5031 2 14.6406C2.24747 14.6687 2.48539 14.6781 2.74239 14.6781C4.17955 14.6781 5.50254 14.2 6.55902 13.3844C5.20749 13.3563 4.07487 12.4844 3.68464 11.2844C3.875 11.3125 4.06535 11.3312 4.26524 11.3312C4.54125 11.3312 4.81729 11.2937 5.07425 11.2281C3.66562 10.9469 2.60911 9.72812 2.60911 8.25624V8.21876C3.01836 8.44376 3.49429 8.58438 3.9987 8.60311C3.17065 8.05935 2.62816 7.13124 2.62816 6.08123C2.62816 5.51874 2.78041 5.00311 3.04693 4.55311C4.56026 6.39061 6.83503 7.59059 9.38577 7.72186C9.33819 7.49686 9.30963 7.26251 9.30963 7.02813C9.30963 5.35936 10.6802 4 12.3839 4C13.269 4 14.0685 4.36562 14.6301 4.95625C15.3249 4.82501 15.9911 4.57187 16.5812 4.225C16.3528 4.92814 15.8674 5.51877 15.2297 5.89374C15.8484 5.82815 16.448 5.65936 17 5.42501C16.5813 6.02499 16.0578 6.55934 15.4582 6.99061Z" fill="white"/>
</svg>
