<svg width="32" height="32" viewBox="0 0 32 32" fill="none" xmlns="http://www.w3.org/2000/svg">
<path fill-rule="evenodd" clip-rule="evenodd" d="M9.33329 21.3333H22.6666C26.3485 21.3333 29.3333 24.3181 29.3333 28C29.3333 28.7364 28.7363 29.3333 28 29.3333C27.3162 29.3333 26.7526 28.8186 26.6756 28.1555L26.6598 27.765C26.5427 25.743 24.9236 24.1239 22.9017 24.0068L22.6666 24H9.33329C7.12415 24 5.33329 25.7909 5.33329 28C5.33329 28.7364 4.73634 29.3333 3.99996 29.3333C3.26358 29.3333 2.66663 28.7364 2.66663 28C2.66663 24.415 5.49637 21.4909 9.04411 21.3395L9.33329 21.3333H22.6666H9.33329ZM16 2.66666C20.4182 2.66666 24 6.24838 24 10.6667C24 15.0849 20.4182 18.6667 16 18.6667C11.5817 18.6667 7.99996 15.0849 7.99996 10.6667C7.99996 6.24838 11.5817 2.66666 16 2.66666ZM16 5.33332C13.0544 5.33332 10.6666 7.72114 10.6666 10.6667C10.6666 13.6122 13.0544 16 16 16C18.9455 16 21.3333 13.6122 21.3333 10.6667C21.3333 7.72114 18.9455 5.33332 16 5.33332Z" fill="white"/>
</svg>
